<svg width="20" height="20" viewBox="0 0 20 20" fill="none" xmlns="http://www.w3.org/2000/svg">
<path fill-rule="evenodd" clip-rule="evenodd" d="M12.5003 7.91602H13.8253C14.567 7.91602 14.9337 8.81602 14.4087 9.34102L10.5837 13.166C10.2587 13.491 9.73366 13.491 9.40866 13.166L5.58366 9.34102C5.05866 8.81602 5.43366 7.91602 6.17533 7.91602H7.50033V3.74935C7.50033 3.29102 7.87533 2.91602 8.33366 2.91602H11.667C12.1253 2.91602 12.5003 3.29102 12.5003 3.74935V7.91602ZM5.00033 17.0827C4.54199 17.0827 4.16699 16.7077 4.16699 16.2493C4.16699 15.791 4.54199 15.416 5.00033 15.416H15.0003C15.4587 15.416 15.8337 15.791 15.8337 16.2493C15.8337 16.7077 15.4587 17.0827 15.0003 17.0827H5.00033Z" fill="white"/>
</svg>
