<svg width="24" height="24" viewBox="0 0 24 24" fill="none" xmlns="http://www.w3.org/2000/svg">
<path d="M15.375 3H8.62501C5.51888 3 3 5.51888 3 8.62501V15.375C3 18.4811 5.51888 21 8.62501 21H15.375C18.4811 21 21 18.4811 21 15.375V8.62501C21 5.51888 18.4811 3 15.375 3ZM19.3125 15.375C19.3125 17.5463 17.5463 19.3125 15.375 19.3125H8.62501C6.45375 19.3125 4.6875 17.5463 4.6875 15.375V8.62501C4.6875 6.45375 6.45375 4.6875 8.62501 4.6875H15.375C17.5463 4.6875 19.3125 6.45375 19.3125 8.62501V15.375Z" fill="white"/>
<path d="M12 7.5C9.51488 7.5 7.5 9.51488 7.5 12C7.5 14.4851 9.51488 16.5 12 16.5C14.4851 16.5 16.5 14.4851 16.5 12C16.5 9.51488 14.4851 7.5 12 7.5ZM12 14.8125C10.4498 14.8125 9.1875 13.5503 9.1875 12C9.1875 10.4486 10.4498 9.1875 12 9.1875C13.5503 9.1875 14.8125 10.4486 14.8125 12C14.8125 13.5503 13.5503 14.8125 12 14.8125Z" fill="white"/>
<path d="M16.8379 7.76175C17.1691 7.76175 17.4375 7.49329 17.4375 7.16213C17.4375 6.83096 17.1691 6.5625 16.8379 6.5625C16.5067 6.5625 16.2383 6.83096 16.2383 7.16213C16.2383 7.49329 16.5067 7.76175 16.8379 7.76175Z" fill="white"/>
</svg>
