<svg width="32" height="25" viewBox="0 0 32 25" fill="none" xmlns="http://www.w3.org/2000/svg">
<path d="M12.7172 24.9394C12.708 24.9211 12.708 24.8969 12.7232 24.8847C12.7384 24.8756 12.787 24.8179 12.8295 24.7602C12.8751 24.7025 12.9388 24.6236 12.9722 24.5871L13.0299 24.5173H15.7174H18.4018L18.4929 24.4201C18.5445 24.3654 18.6326 24.2531 18.6903 24.1681C18.748 24.0861 18.8117 24.0041 18.833 23.9919C18.8512 23.9798 18.8694 23.9555 18.8694 23.9403C18.8694 23.9221 18.8907 23.8856 18.915 23.8583C18.9575 23.8037 19.1245 23.5729 19.4373 23.1326C19.5223 23.0111 19.6073 22.8927 19.6255 22.8714C19.6438 22.8501 19.829 22.592 20.0385 22.3005C20.245 22.009 20.4303 21.7509 20.4485 21.7327C20.4849 21.6871 20.5396 21.681 20.5396 21.7205C20.5396 21.7327 20.6003 21.8389 20.6762 21.9543C20.7521 22.0667 20.8129 22.1699 20.8129 22.179C20.8129 22.1882 20.7916 22.2246 20.7673 22.255C20.743 22.2884 20.6853 22.3643 20.6398 22.425C20.5912 22.4857 20.5305 22.5677 20.5001 22.6072C20.2268 22.9777 18.8239 24.8513 18.7783 24.906L18.7176 24.9728H15.7295C13.5674 24.9728 12.7323 24.9637 12.7172 24.9394Z" fill="white"/>
<path d="M23.6978 24.9271C23.6765 24.8998 23.6067 24.8026 23.5459 24.7054L23.4336 24.5323L26.6403 24.5141C29.9108 24.4989 30.0049 24.4959 30.2236 24.3805C30.2752 24.3562 30.3268 24.335 30.345 24.335C30.3602 24.335 30.4392 24.42 30.5211 24.5263C30.7246 24.7905 30.7216 24.7874 30.7823 24.8542C30.8127 24.8876 30.8278 24.9271 30.8187 24.9423C30.8066 24.9605 29.5008 24.9727 27.2689 24.9727C24.1411 24.9727 23.7312 24.9666 23.6978 24.9271Z" fill="white"/>
<path d="M31.0766 24.8208C31.0766 24.7874 31.0553 24.7509 31.031 24.7418C31.0067 24.7297 30.9855 24.7054 30.9855 24.6811C30.9855 24.6568 30.9582 24.6143 30.9248 24.587C30.8914 24.5566 30.864 24.5171 30.864 24.4959C30.864 24.4746 30.8519 24.4564 30.8397 24.4564C30.8063 24.4564 30.6211 24.2013 30.6211 24.1588C30.6211 24.1406 30.6697 24.0738 30.7304 24.01C30.8671 23.8673 31.0341 23.5393 31.0918 23.3085C31.1525 23.0565 31.1798 22.5554 31.1373 22.3793C31.1191 22.2973 31.113 22.2244 31.1221 22.2153C31.1616 22.1759 31.4714 22.3611 31.6384 22.5281C31.7811 22.6708 31.8388 22.7589 31.9086 22.9381C31.9876 23.1385 31.9997 23.2053 31.9997 23.4998C32.0028 23.8794 31.9542 24.0859 31.8084 24.3046C31.7021 24.4655 31.5473 24.6386 31.5108 24.6386C31.4957 24.6386 31.4622 24.6659 31.4319 24.6993C31.4046 24.7327 31.359 24.7601 31.3347 24.7601C31.3104 24.7601 31.2892 24.7692 31.2892 24.7843C31.2892 24.8056 31.1464 24.8815 31.1009 24.8815C31.0887 24.8815 31.0766 24.8542 31.0766 24.8208Z" fill="white"/>
<path d="M11.5208 24.1673C11.5208 24.1431 11.7606 23.8212 11.8335 23.7422C11.8639 23.7088 11.955 23.5934 12.0309 23.4841C12.1099 23.3748 12.1858 23.2715 12.204 23.2533C12.2192 23.2321 12.2617 23.1804 12.2951 23.1318C12.3285 23.0863 12.3892 23.0043 12.4317 22.9557C12.4743 22.9041 12.5198 22.8434 12.538 22.8221C12.5532 22.8009 12.5836 22.7675 12.6018 22.7462C12.62 22.7249 12.7081 22.6065 12.7961 22.482C12.9389 22.2816 13.112 22.0599 13.3124 21.82C13.3458 21.7805 13.3731 21.7411 13.3731 21.735C13.3731 21.7137 13.8681 21.07 13.8954 21.0609C13.9076 21.0548 13.9197 21.0366 13.9197 21.0183C13.9197 21.0001 13.9774 20.9151 14.0503 20.8301C14.1232 20.745 14.272 20.5537 14.3843 20.4019C14.4967 20.2531 14.5969 20.1165 14.6121 20.0982C14.6242 20.083 14.7092 19.9737 14.8003 19.8553C14.8914 19.7399 14.9765 19.6397 14.9886 19.6336C15.0038 19.6275 15.0129 19.6033 15.0129 19.582C15.0129 19.5607 15.0342 19.5364 15.0585 19.5243C15.0827 19.5152 15.104 19.4879 15.104 19.4605C15.104 19.4362 15.1162 19.415 15.1313 19.415C15.1465 19.415 15.1678 19.3907 15.1769 19.3634C15.189 19.333 15.2407 19.2601 15.2953 19.1994C15.3469 19.1386 15.4137 19.0567 15.438 19.0202C15.4623 18.9807 15.5079 18.9291 15.5382 18.9018C15.5656 18.8775 15.5899 18.838 15.5899 18.8198C15.5899 18.7985 15.602 18.7773 15.6142 18.7712C15.6263 18.7682 15.7417 18.6255 15.8692 18.4554C15.9968 18.2853 16.1243 18.1274 16.1486 18.1001C16.1759 18.0758 16.1972 18.0424 16.1972 18.0303C16.1972 18.0181 16.2185 17.9878 16.2428 17.9604C16.2701 17.9331 16.3915 17.7752 16.516 17.6082C16.6406 17.4412 16.762 17.2833 16.7833 17.259C16.8076 17.2347 16.8592 17.1648 16.8987 17.1071C16.9381 17.0494 17.008 16.9614 17.0535 16.9097C17.1537 16.8035 17.1568 16.7731 17.0869 16.6881C17.0566 16.6547 17.011 16.597 16.9867 16.5605C16.9624 16.5211 16.9199 16.4694 16.8926 16.4421C16.8683 16.4148 16.8167 16.3449 16.7802 16.2872C16.7468 16.2295 16.6254 16.0564 16.51 15.9046C16.3976 15.7497 16.2822 15.5949 16.2579 15.5584C16.2336 15.522 16.2002 15.4734 16.182 15.4552C16.1425 15.4096 15.8571 15.0179 15.684 14.7689C15.6081 14.6596 15.5291 14.5594 15.5079 14.5472C15.4866 14.5351 15.4684 14.5047 15.4684 14.4804C15.4684 14.4592 15.4563 14.4349 15.4411 14.4288C15.4259 14.4258 15.2619 14.2071 15.0767 13.949C14.7426 13.4814 14.6667 13.3781 14.5969 13.2961C14.5756 13.2749 14.5574 13.2475 14.5574 13.2384C14.5574 13.2293 14.4572 13.0866 14.3388 12.9196C14.2173 12.7556 14.0958 12.5886 14.0715 12.5521C14.0472 12.5157 14.0108 12.4671 13.9926 12.4489C13.9501 12.4064 13.7861 12.1786 13.5492 11.8385C13.446 11.6897 13.3458 11.55 13.3276 11.5318C13.3124 11.5136 13.2759 11.465 13.2516 11.4286C13.2274 11.3921 13.1757 11.3253 13.1363 11.2828C13.0998 11.2373 12.9966 11.0976 12.9115 10.9731C12.8265 10.8486 12.6686 10.633 12.5623 10.4963C12.456 10.3597 12.371 10.2382 12.371 10.2261C12.371 10.2139 12.3498 10.1836 12.3255 10.1562C12.2435 10.0742 11.9155 9.60659 11.9155 9.57622C11.9155 9.558 11.9003 9.54585 11.8852 9.54585C11.8669 9.54585 11.8426 9.52156 11.8335 9.49423C11.8123 9.43957 11.788 9.40617 11.7121 9.3181C11.6908 9.29685 11.6726 9.26952 11.6726 9.26041C11.6726 9.2513 13.2486 9.24219 15.1769 9.24219H18.6842L18.8361 9.46386C18.9211 9.58229 18.9909 9.69769 18.9909 9.71591C18.9909 9.73716 19.0122 9.75842 19.0365 9.77057C19.0608 9.77968 19.082 9.80701 19.082 9.8313C19.082 9.85559 19.0942 9.87989 19.1063 9.88596C19.1245 9.89203 19.4403 10.3536 19.6681 10.7119C19.6894 10.7423 19.7197 10.7848 19.7349 10.803C19.7683 10.8395 19.8655 10.9852 19.9171 11.0733C19.9323 11.1006 20.0993 11.3466 20.2815 11.6169C20.4667 11.8902 20.6216 12.124 20.6277 12.1392C20.6338 12.1574 20.652 12.1847 20.6672 12.2029C20.6823 12.2181 20.7127 12.2606 20.737 12.294C20.7795 12.3548 20.7856 12.3517 20.8736 12.2485C20.9222 12.1908 20.9647 12.127 20.9647 12.1088C20.9647 12.0875 20.986 12.0663 21.0103 12.0541C21.0346 12.045 21.0558 12.0177 21.0558 11.9904C21.0558 11.9661 21.071 11.9448 21.0862 11.9448C21.1044 11.9448 21.1166 11.9296 21.1166 11.9144C21.1166 11.8962 21.1287 11.8659 21.1469 11.8446C21.1621 11.8233 21.232 11.7322 21.2957 11.6411C21.3626 11.55 21.4324 11.4589 21.4506 11.4377C21.4658 11.4164 21.481 11.3861 21.481 11.3709C21.481 11.3527 21.4992 11.3284 21.5205 11.3162C21.5387 11.3041 21.6116 11.2099 21.6814 11.1097C21.8909 10.8 22.1551 10.4174 22.1855 10.384C22.2705 10.2807 22.5529 9.889 22.5681 9.84952C22.5772 9.82523 22.6015 9.78879 22.6167 9.76753C22.7048 9.67036 22.726 9.63695 22.726 9.61873C22.726 9.60962 22.7564 9.56104 22.7959 9.51549C22.9295 9.34847 22.9689 9.29077 22.9689 9.26648C22.9689 9.25433 24.4448 9.24219 26.2485 9.24219C28.1525 9.24219 29.5281 9.25433 29.5281 9.26952C29.5281 9.2847 29.5069 9.30292 29.4826 9.31507C29.4583 9.32418 29.437 9.35151 29.437 9.3758C29.437 9.40009 29.4249 9.42439 29.4097 9.43046C29.3945 9.43653 29.273 9.58533 29.1425 9.76146C28.854 10.1562 27.9794 11.3101 27.9369 11.3557C27.9187 11.377 27.8792 11.4225 27.8519 11.462C27.5543 11.881 27.451 12.0268 27.4146 12.0663C27.3539 12.13 27.2749 12.2303 27.2203 12.3122C27.196 12.3487 27.1504 12.4003 27.1231 12.4276C27.0927 12.4519 27.0684 12.4853 27.0684 12.5005C27.0684 12.5127 27.0563 12.54 27.0381 12.5613C26.9348 12.6858 26.7344 12.9469 26.6737 13.038C26.6342 13.0957 26.5826 13.1564 26.5613 13.1686C26.54 13.1807 26.5218 13.205 26.5218 13.2232C26.5218 13.2506 26.5066 13.2718 26.4155 13.3811C26.3457 13.4631 25.5228 14.5503 25.3558 14.781C25.2586 14.9147 25.1584 15.0483 25.1371 15.0726C25.0582 15.1546 24.9731 15.2639 24.9731 15.2821C24.9731 15.2912 24.9337 15.3428 24.8881 15.3945C24.8426 15.4491 24.7849 15.522 24.7606 15.5584C24.6968 15.6556 24.5116 15.9016 24.4721 15.941C24.4569 15.9593 24.4205 16.0079 24.3962 16.0443C24.3719 16.0838 24.3263 16.1354 24.299 16.1627C24.2686 16.187 24.2443 16.2204 24.2443 16.2356C24.2443 16.2478 24.2322 16.2751 24.214 16.2963C24.1988 16.3176 24.1502 16.3753 24.1077 16.43L24.0287 16.5271L24.0925 16.5909C24.1259 16.6243 24.1532 16.6607 24.1532 16.6759C24.1532 16.6881 24.1988 16.7458 24.2534 16.8065C24.3051 16.8672 24.3719 16.9492 24.3962 16.9857C24.4599 17.0798 24.9944 17.8116 25.0278 17.8541C25.043 17.8724 25.125 17.9817 25.207 18.0971C25.5653 18.5981 25.7323 18.8259 25.7778 18.8714C25.8021 18.8988 25.8234 18.9291 25.8234 18.9413C25.8234 18.9534 25.8507 18.9899 25.8811 19.0233C25.9115 19.0567 26.0177 19.1963 26.1149 19.333C26.2091 19.4696 26.4064 19.7399 26.5522 19.9312C26.698 20.1225 26.871 20.3624 26.9378 20.4626C27.0077 20.5628 27.0866 20.6752 27.117 20.7116C27.1504 20.745 27.196 20.8058 27.2203 20.8422C27.2446 20.8787 27.3144 20.9728 27.3721 21.0517C27.4298 21.1277 27.5968 21.3554 27.7426 21.5558C27.8883 21.7562 28.025 21.9445 28.0462 21.9718C28.0675 21.9992 28.107 22.0508 28.1313 22.0872C28.1555 22.1237 28.2132 22.1966 28.2588 22.2512C28.3043 22.3028 28.3438 22.3575 28.3438 22.3696C28.3438 22.3848 28.362 22.4122 28.3833 22.4334C28.4015 22.4577 28.441 22.5063 28.4653 22.5427C28.5108 22.6095 28.69 22.8525 29.2032 23.5539C29.349 23.7483 29.4674 23.9214 29.4674 23.9366C29.4674 23.9517 29.4886 23.97 29.5129 23.9821C29.5372 23.9912 29.5585 24.0186 29.5585 24.0428C29.5585 24.0641 29.5797 24.0914 29.604 24.1036C29.7953 24.1765 29.4765 24.1825 26.0906 24.1825H22.5286L22.3768 23.9457C22.2948 23.8181 22.2189 23.6997 22.2128 23.6815C22.2067 23.6663 22.1916 23.645 22.1794 23.6359C22.1521 23.6177 21.815 23.0924 21.815 23.0711C21.815 23.0559 21.4901 22.5518 21.4415 22.4972C21.4051 22.4516 21.2077 22.1449 21.2077 22.1298C21.2077 22.1237 21.1044 21.9627 20.9799 21.7714C20.8554 21.5801 20.7522 21.4101 20.7522 21.3949C20.7522 21.3767 20.7431 21.3584 20.7309 21.3524C20.7157 21.3493 20.6672 21.2856 20.6186 21.2157C20.5396 21.0973 20.4485 21.0426 20.4485 21.1125C20.4485 21.1277 20.4303 21.1611 20.409 21.1823C20.3878 21.2036 20.2845 21.3463 20.1843 21.4981C20.0811 21.65 19.9748 21.7957 19.9505 21.8231C19.9232 21.8504 19.9019 21.8807 19.9019 21.8959C19.9019 21.9111 19.8776 21.9445 19.8503 21.9718C19.7805 22.0387 19.7197 22.1115 19.7197 22.1298C19.7197 22.1449 19.2278 22.8494 19.1185 22.9891C19.0911 23.0256 19.0456 23.0833 19.0213 23.1197C18.997 23.1561 18.8816 23.311 18.7692 23.4659C18.6539 23.6177 18.5324 23.7908 18.499 23.8485C18.4625 23.9062 18.4109 23.976 18.3866 24.0034C18.3593 24.0307 18.3168 24.0823 18.2925 24.1188L18.25 24.1825H14.8854C13.036 24.1825 11.5208 24.1765 11.5208 24.1673Z" fill="white"/>
<path d="M29.8801 24.0163C29.8679 23.9738 29.8466 23.9404 29.8315 23.9404C29.8132 23.9404 29.8011 23.9222 29.8011 23.9009C29.8011 23.8797 29.7738 23.8402 29.7404 23.8098C29.707 23.7825 29.6796 23.7369 29.6796 23.7127C29.6796 23.6884 29.6675 23.6671 29.6553 23.6671C29.6402 23.6671 29.5157 23.5062 29.3729 23.3118C29.2332 23.1144 29.1087 22.9505 29.0966 22.9444C29.0814 22.9383 29.0723 22.917 29.0723 22.8958C29.0723 22.8776 29.048 22.8381 29.0207 22.8138C28.9903 22.7865 28.9448 22.7348 28.9205 22.6954C28.8962 22.6589 28.8597 22.6103 28.8415 22.5921C28.8263 22.5739 28.7292 22.4433 28.632 22.3006C28.5318 22.1579 28.4073 21.9878 28.3526 21.918C28.2554 21.7965 28.2281 21.7236 28.2767 21.7236C28.2919 21.7236 28.3465 21.6842 28.4012 21.6356C28.5196 21.5293 28.7808 21.4018 28.9599 21.3592C29.1634 21.3137 29.6462 21.3228 29.8345 21.3775C30.3538 21.5323 30.7121 21.921 30.8062 22.4373C30.8457 22.6559 30.8245 23.0142 30.7607 23.2329C30.6908 23.4545 30.4084 23.8493 30.3204 23.8493C30.3052 23.8493 30.287 23.8675 30.2779 23.8918C30.2627 23.9252 29.962 24.0922 29.9135 24.0922C29.9043 24.0922 29.8892 24.0588 29.8801 24.0163Z" fill="white"/>
<path d="M10.9137 21.8053C10.9046 21.7962 10.7315 21.7719 10.528 21.7567C10.3246 21.7385 10.0786 21.7021 9.98448 21.6778C9.88731 21.6535 9.74762 21.6322 9.67778 21.6322C9.6049 21.6322 9.5472 21.6201 9.5472 21.6049C9.5472 21.5897 9.46825 21.5685 9.37411 21.5563C9.27694 21.5472 9.17065 21.5259 9.13725 21.5108C9.10385 21.4956 8.91861 21.4409 8.7273 21.3863C8.31735 21.2739 7.7829 21.0917 7.74039 21.0522C7.72521 21.037 7.68573 21.0249 7.65233 21.0249C7.62196 21.0249 7.6007 21.0158 7.61285 21.0067C7.62196 20.9976 7.7495 21.0158 7.8983 21.0522C8.28091 21.1403 8.85181 21.2314 9.16154 21.2557C9.3073 21.2678 9.43484 21.2891 9.44395 21.3043C9.46521 21.3377 11.4512 21.3377 11.4724 21.3043C11.4815 21.2891 11.6091 21.2678 11.7548 21.2557C12.1041 21.2314 12.8602 21.1038 13.2246 21.0127C13.3825 20.9733 13.5161 20.9459 13.5222 20.952C13.5283 20.9551 13.4584 21.0553 13.3703 21.1676C13.2792 21.28 13.1912 21.3954 13.1699 21.4197C13.1517 21.444 13.0879 21.5259 13.0333 21.6019C12.9331 21.7355 12.924 21.7385 12.7205 21.7598C12.4472 21.7901 10.935 21.8266 10.9137 21.8053Z" fill="white"/>
<path d="M9.65349 21.0066C8.87914 20.9155 8.70605 20.8942 8.68176 20.8729C8.66657 20.8608 8.55725 20.8426 8.44186 20.8335C8.32647 20.8213 8.22322 20.8031 8.21411 20.7879C8.205 20.7727 8.1139 20.7515 8.01369 20.7393C7.91652 20.7272 7.82542 20.7059 7.81631 20.6907C7.8072 20.6725 7.73128 20.6513 7.64626 20.6422C7.56427 20.63 7.49139 20.6118 7.48228 20.5996C7.47317 20.5905 7.32437 20.5359 7.14825 20.4812C6.75044 20.3567 6.06112 20.0895 6.03987 20.05C6.02772 20.0348 5.99432 20.0227 5.96395 20.0227C5.93358 20.0227 5.88803 20.0045 5.86678 19.9802C5.84248 19.9589 5.79086 19.9285 5.75138 19.9164C5.70887 19.9042 5.6694 19.883 5.66029 19.8708C5.65118 19.8617 5.49631 19.7706 5.31411 19.6704C4.86468 19.4275 4.81306 19.3971 4.75233 19.3425C4.72196 19.3151 4.68552 19.2939 4.67034 19.2939C4.65515 19.2939 4.61871 19.2665 4.58835 19.2331C4.56102 19.1997 4.51547 19.1724 4.49117 19.1724C4.46688 19.1724 4.44562 19.1603 4.44562 19.1481C4.44562 19.1238 4.30594 19.0145 4.04479 18.8384C3.91421 18.7473 3.68342 18.5469 3.34332 18.228C3.20667 18.1005 3.04876 17.9547 2.99714 17.9092C2.94248 17.8606 2.89693 17.812 2.89693 17.8029C2.89693 17.7907 2.80887 17.6905 2.69955 17.5782C2.59023 17.4658 2.42017 17.2775 2.32604 17.1561C2.2319 17.0376 2.14384 16.9374 2.13169 16.9314C2.11651 16.9253 2.1074 16.904 2.1074 16.8828C2.1074 16.8646 2.08311 16.8251 2.05578 16.8008C2.02541 16.7735 1.97986 16.7218 1.95557 16.6824C1.93127 16.6459 1.86447 16.5579 1.81284 16.488C1.75818 16.4212 1.71263 16.3453 1.71263 16.3271C1.71263 16.3058 1.70049 16.2876 1.68227 16.2876C1.66708 16.2876 1.6519 16.2754 1.6519 16.2603C1.6519 16.2451 1.56384 16.0932 1.45452 15.9202C1.3452 15.7471 1.25714 15.5892 1.25714 15.5679C1.25714 15.5497 1.24499 15.5284 1.22981 15.5224C1.1964 15.5102 0.87148 14.8087 0.771271 14.5324C0.734831 14.4292 0.689281 14.335 0.677135 14.3259C0.661951 14.3168 0.649805 14.2834 0.649805 14.25C0.649805 14.2196 0.622475 14.1407 0.589072 14.0799C0.555668 14.0162 0.528338 13.9311 0.528338 13.8886C0.528338 13.8461 0.516192 13.7975 0.501009 13.7823C0.394726 13.6639 0.1275 12.4007 0.0394369 11.5808C-0.0182595 11.0615 -0.0121862 9.84077 0.0546202 9.30328C0.14572 8.54412 0.364359 7.49951 0.482789 7.26265C0.504045 7.2171 0.531375 7.126 0.543522 7.05616C0.555668 6.98935 0.576925 6.93469 0.589072 6.93469C0.604255 6.93469 0.622475 6.88914 0.634621 6.83752C0.643731 6.78286 0.664988 6.70998 0.680171 6.67658C0.695354 6.64317 0.765198 6.4792 0.835041 6.31218C1.02939 5.8415 1.20248 5.4771 1.22981 5.4771C1.24499 5.4771 1.25714 5.44977 1.25714 5.41637C1.25714 5.38296 1.27536 5.34652 1.29965 5.33741C1.32394 5.3283 1.35127 5.28883 1.36038 5.25239C1.39986 5.09448 2.08311 4.11971 2.50216 3.62474C2.67525 3.41825 3.41012 2.68338 3.58018 2.54673C3.66217 2.47992 3.75934 2.39793 3.79578 2.36453C3.95976 2.21877 4.10552 2.10641 4.42437 1.88777C4.61264 1.7572 4.77966 1.6418 4.79788 1.62966C4.86772 1.57803 4.94971 1.52641 5.02259 1.49301C5.0651 1.47175 5.11672 1.43835 5.13798 1.41709C5.15924 1.39584 5.19871 1.37762 5.22301 1.37762C5.2473 1.37762 5.26552 1.36547 5.26552 1.35332C5.26552 1.32599 5.7939 1.05877 6.14615 0.903897C6.25547 0.858347 6.34961 0.809761 6.35872 0.797614C6.36783 0.785468 6.42552 0.767248 6.48929 0.755101C6.55003 0.742954 6.60165 0.721698 6.60165 0.706515C6.60165 0.694368 6.65327 0.673111 6.71704 0.660965C6.77777 0.648818 6.83547 0.630598 6.84458 0.618452C6.89317 0.548609 8.0805 0.232796 8.62102 0.144733C8.80626 0.114367 8.96113 0.0809637 8.97024 0.0688171C9.04616 -0.0283558 11.9644 -0.0192459 12.0251 0.0748904C12.0342 0.0900737 12.0767 0.10222 12.1193 0.10222C12.3804 0.10222 14.0202 0.515205 14.1417 0.612378C14.1629 0.627562 14.2297 0.648818 14.2935 0.660965C14.3542 0.673111 14.4059 0.694368 14.4059 0.709551C14.4059 0.724735 14.4544 0.745991 14.5121 0.758138C14.5698 0.767248 14.6184 0.788504 14.6184 0.800651C14.6184 0.812798 14.6549 0.834054 14.7034 0.846201C14.749 0.858347 14.998 0.970704 15.2561 1.09824C15.7966 1.36851 15.8634 1.40495 15.9181 1.4596C15.9394 1.48086 15.9788 1.49908 16.0031 1.49908C16.0274 1.49908 16.0456 1.51123 16.0456 1.52641C16.0456 1.54159 16.076 1.56589 16.1155 1.57803C16.1519 1.59018 16.1884 1.60536 16.1975 1.61751C16.2066 1.62662 16.2947 1.69039 16.3949 1.75416C16.5649 1.86348 16.8959 2.10945 16.9749 2.18233C16.9931 2.19751 17.0417 2.23395 17.0781 2.25825C17.1176 2.28254 17.1692 2.32505 17.1965 2.35238C17.2239 2.37971 17.3453 2.48903 17.4698 2.59228C17.734 2.81699 17.9587 3.03867 17.9587 3.07207C17.9587 3.09029 14.6579 6.40935 14.5243 6.52474C14.5152 6.53385 14.418 6.4549 14.3117 6.34862C14.2054 6.24537 14.0232 6.0905 13.9048 6.00851C13.7894 5.92652 13.6892 5.84757 13.6831 5.83542C13.6771 5.82024 13.6619 5.81113 13.6467 5.81113C13.6315 5.81113 13.5495 5.76254 13.4615 5.70485C13.3704 5.64715 13.2823 5.59857 13.261 5.59857C13.2398 5.59857 13.2216 5.58642 13.2216 5.57124C13.2216 5.51354 12.2286 5.12788 11.9158 5.06715C11.8581 5.055 11.7974 5.03375 11.7791 5.0216C11.764 5.00945 11.6455 4.9882 11.521 4.97605C11.3965 4.96694 11.2842 4.93961 11.272 4.92139C11.2386 4.86977 9.76584 4.86977 9.73548 4.92139C9.72333 4.94265 9.6049 4.96694 9.46218 4.97909C9.32553 4.99123 9.21317 5.00945 9.21317 5.02464C9.21317 5.03678 9.15548 5.055 9.08563 5.06715C8.75464 5.12181 7.71306 5.54694 7.57945 5.68055C7.5582 5.70181 7.51872 5.72003 7.49443 5.72003C7.47013 5.72003 7.45191 5.73521 7.45191 5.7504C7.45191 5.76862 7.42155 5.79595 7.38511 5.81417C7.34563 5.82935 7.27579 5.8749 7.22416 5.91134C7.17558 5.94778 7.07233 6.0237 6.99641 6.07836C6.72008 6.28181 6.14008 6.88307 5.96395 7.14726C5.93966 7.1837 5.90018 7.23229 5.88196 7.25658C5.8607 7.27784 5.84248 7.30517 5.84248 7.31428C5.84248 7.33553 5.65725 7.60579 5.62688 7.63312C5.61474 7.64223 5.59652 7.68171 5.58437 7.72422C5.57222 7.76674 5.55097 7.80621 5.53882 7.81532C5.49023 7.84873 5.25337 8.39836 5.14405 8.72632C4.98007 9.22433 4.89809 9.62517 4.86772 10.0624C4.84039 10.4785 4.86165 11.2559 4.90112 11.353C4.91327 11.3864 4.94363 11.5018 4.96185 11.6111C5.02866 11.9725 5.15316 12.3642 5.35055 12.841C5.39002 12.9412 5.43254 13.0293 5.44468 13.0384C5.45379 13.0475 5.49631 13.1204 5.53882 13.2023C5.67547 13.4696 6.10971 14.0951 6.18259 14.1255C6.19777 14.1316 6.20688 14.1498 6.20688 14.168C6.20688 14.2196 6.96908 14.9515 7.02374 14.9515C7.03285 14.9515 7.06626 14.9758 7.09359 15.0061C7.20898 15.1276 7.55516 15.3493 7.87704 15.5041C8.01977 15.574 8.14123 15.6377 8.15034 15.6499C8.15945 15.662 8.21715 15.6803 8.28092 15.6924C8.34165 15.7046 8.39328 15.7258 8.39328 15.741C8.39328 15.7592 8.44794 15.7805 8.51474 15.7896C8.58155 15.8017 8.63621 15.8199 8.63621 15.8321C8.63621 15.8594 9.26176 16.0234 9.57757 16.0811C9.92679 16.1418 11.1263 16.1327 11.4846 16.0659C11.846 15.9961 12.35 15.8655 12.3713 15.8351C12.3804 15.8199 12.4381 15.8017 12.5019 15.7896C12.5626 15.7774 12.6142 15.7562 12.6142 15.744C12.6142 15.7288 12.6507 15.7076 12.6993 15.6985C12.7995 15.6742 13.1153 15.5132 13.4888 15.2946L13.7682 15.1306V14.6174V14.1012H11.6729H9.57757V11.6719V9.24255H10.3914H11.2052L11.3085 9.34883C11.3662 9.40653 11.4299 9.45512 11.4512 9.45512C11.4724 9.45512 11.4907 9.46726 11.4907 9.47941C11.4907 9.49459 11.518 9.54014 11.5514 9.57962C11.5848 9.6191 11.6212 9.66768 11.6364 9.68287C11.6486 9.70109 11.7063 9.78308 11.764 9.86507C11.8642 10.0139 12.2195 10.4997 12.2802 10.5696C12.2954 10.5908 12.3106 10.6151 12.3106 10.6273C12.3106 10.6394 12.3318 10.6698 12.3561 10.6971C12.3834 10.7244 12.4776 10.8489 12.5687 10.9734C12.6628 11.0979 12.7509 11.2164 12.7661 11.2376C12.7843 11.2589 12.7964 11.2893 12.7964 11.3075C12.7964 11.3227 12.8086 11.3378 12.8238 11.3378C12.8389 11.3378 12.8602 11.3621 12.8693 11.3925C12.8815 11.4198 12.927 11.4866 12.9726 11.5383C13.0181 11.5929 13.0758 11.6658 13.1001 11.7022C13.1244 11.7417 13.2853 11.9604 13.4584 12.1942C13.6285 12.425 13.7682 12.6284 13.7682 12.6406C13.7682 12.6558 13.7803 12.674 13.7955 12.68C13.8228 12.6892 14.008 12.9412 14.3117 13.3724C14.3876 13.4817 14.4605 13.5759 14.4727 13.5789C14.4848 13.585 14.497 13.6062 14.497 13.6275C14.497 13.6457 14.5212 13.6852 14.5516 13.7095C14.5789 13.7368 14.6245 13.7884 14.6488 13.8279C14.6731 13.8643 14.7338 13.9463 14.7824 14.0071C14.8279 14.0678 14.9373 14.2196 15.0223 14.3441C15.1073 14.4686 15.1923 14.5871 15.2075 14.6053C15.2257 14.6235 15.2622 14.6721 15.2865 14.7085C15.3108 14.745 15.4717 14.9636 15.6448 15.1974C15.8149 15.4313 15.9545 15.6317 15.9545 15.6469C15.9545 15.662 15.9667 15.6803 15.9849 15.6863C16.0153 15.6954 16.1216 15.8412 16.5011 16.3878C16.6044 16.5336 16.7137 16.6793 16.7471 16.7097C16.8078 16.7643 16.8048 16.7704 16.5133 17.1561C16.3493 17.3717 16.1975 17.566 16.1762 17.5873C16.155 17.6085 16.1367 17.6389 16.1367 17.648C16.1367 17.6602 16.1003 17.7118 16.0548 17.7634C16.0062 17.815 15.9576 17.8788 15.9394 17.9031C15.9242 17.9274 15.8209 18.064 15.7177 18.2037C15.6114 18.3434 15.5021 18.4892 15.4748 18.5286C15.4444 18.5681 15.3958 18.6319 15.3624 18.6683C15.2743 18.7685 15.0223 19.0935 14.8401 19.3455C14.6579 19.5975 14.6245 19.6431 14.5516 19.7129C14.5212 19.7403 14.497 19.7797 14.497 19.798C14.497 19.8192 14.4878 19.8405 14.4757 19.8465C14.4605 19.8526 14.3785 19.9528 14.2874 20.0743C14.1174 20.302 14.005 20.3749 13.6011 20.5237C13.5191 20.5571 13.4432 20.5905 13.4341 20.5996C13.425 20.6118 13.3582 20.63 13.2823 20.6422C13.2094 20.6543 13.1396 20.6756 13.1305 20.6938C13.1183 20.709 13.0363 20.7302 12.9452 20.7424C12.8541 20.7515 12.7661 20.7727 12.7478 20.7849C12.7296 20.8001 12.6142 20.8244 12.4897 20.8395C12.3652 20.8578 12.1435 20.8912 11.9917 20.9155C11.5423 20.9883 10.9744 21.0248 10.3428 21.0217C10.0148 21.0187 9.70511 21.0096 9.65349 21.0066Z" fill="white"/>
<path d="M25.0033 17.2291C24.9638 17.1623 24.9122 17.1016 24.8909 17.0955C24.8697 17.0864 24.8515 17.059 24.8515 17.0317C24.8515 17.0074 24.8393 16.9862 24.8241 16.9862C24.8089 16.9862 24.7877 16.9619 24.7786 16.9345C24.7664 16.9042 24.7209 16.8374 24.6753 16.7827C24.5448 16.6278 24.4871 16.5519 24.4871 16.5246C24.4871 16.5094 24.7421 16.1602 25.0549 15.7472C25.6592 14.9516 25.641 14.9759 25.7321 14.8635C25.7655 14.8241 25.8353 14.7269 25.887 14.6449C25.9386 14.5629 25.9932 14.4961 26.0054 14.4961C26.0206 14.4961 26.0388 14.4718 26.0479 14.4445C26.06 14.4141 26.1056 14.3473 26.1511 14.2957C26.1967 14.241 26.2544 14.1682 26.2787 14.1317C26.3455 14.0345 26.5307 13.7855 26.552 13.7673C26.5672 13.7521 26.8374 13.3938 27.2717 12.8108C27.4114 12.6286 27.5328 12.4616 27.545 12.4464C27.5602 12.4281 27.6209 12.3522 27.6847 12.2733C27.7454 12.1974 27.797 12.1214 27.797 12.1093C27.797 12.0972 27.8152 12.0729 27.8395 12.0546C27.8608 12.0364 28.0065 11.8512 28.1614 11.6417C28.3163 11.4321 28.456 11.259 28.4712 11.253C28.4833 11.2469 28.4954 11.2256 28.4954 11.2044C28.4954 11.1862 28.5197 11.1467 28.5501 11.1193C28.5774 11.092 28.7718 10.8369 28.9813 10.5515L29.3609 10.0353L30.0381 10.0322C30.4268 10.0322 30.7122 10.0444 30.7122 10.0596C30.7122 10.0747 30.7001 10.093 30.6849 10.099C30.6697 10.1051 30.3417 10.5333 29.95 11.0495C29.5613 11.5688 29.2273 12.0061 29.2121 12.0243C29.1939 12.0425 29.1574 12.0911 29.1331 12.1275C29.1088 12.164 29.0633 12.2247 29.0299 12.2581C28.9995 12.2945 28.9084 12.4221 28.8264 12.5435C28.7445 12.662 28.6473 12.7956 28.6108 12.8351C28.5714 12.8776 28.5197 12.9413 28.4954 12.9778C28.4712 13.0142 28.4043 13.0962 28.3527 13.1569C28.2981 13.2177 28.2525 13.2814 28.2525 13.2997C28.2525 13.3209 28.2313 13.3422 28.207 13.3543C28.1827 13.3634 28.1614 13.3847 28.1614 13.4029C28.1614 13.4211 28.1462 13.4515 28.131 13.4728C27.9671 13.6671 27.7059 14.0133 27.7059 14.0345C27.7059 14.0528 27.6847 14.071 27.6604 14.0831C27.6361 14.0922 27.6148 14.1196 27.6148 14.1439C27.6148 14.1682 27.6027 14.1924 27.5905 14.1985C27.5784 14.2046 27.4114 14.4141 27.2231 14.6631C27.0348 14.9152 26.8435 15.152 26.798 15.1945C26.7554 15.2371 26.5489 15.4952 26.3425 15.7715C26.1329 16.0478 25.9568 16.2786 25.9447 16.2877C25.9355 16.2968 25.893 16.3515 25.8536 16.4092C25.8141 16.4669 25.7655 16.5307 25.7473 16.5489C25.7321 16.5671 25.5863 16.7523 25.4284 16.9649C25.2705 17.1744 25.1248 17.3475 25.1096 17.3506C25.0914 17.3506 25.0458 17.2959 25.0033 17.2291Z" fill="white"/>
<path d="M10.7617 14.6482V14.4053H12.1282H13.4977L13.4886 14.6421L13.4795 14.876L12.1221 14.8851L10.7617 14.8911V14.6482Z" fill="white"/>
<path d="M6.68366 14.1861C6.42251 13.9068 6.10062 13.5029 6.02167 13.345C5.99738 13.3025 5.96094 13.2478 5.94272 13.2265C5.92146 13.2053 5.90324 13.1719 5.90324 13.1567C5.90324 13.1415 5.87287 13.0777 5.8334 13.014C5.79392 12.9532 5.70889 12.7802 5.64512 12.6283C5.58135 12.4795 5.52062 12.3429 5.50848 12.3247C5.49633 12.3095 5.47507 12.2487 5.46293 12.1941C5.45078 12.1394 5.42345 12.0574 5.39916 12.0119C5.37486 11.9663 5.35664 11.8843 5.35664 11.8327C5.35664 11.7781 5.3445 11.7325 5.32931 11.7325C5.31413 11.7325 5.27162 11.5716 5.23214 11.3772C5.13193 10.8792 5.13193 10.1049 5.23214 9.63722C5.26858 9.46413 5.31109 9.30622 5.32324 9.288C5.33842 9.27282 5.35664 9.1969 5.36575 9.12402C5.37486 9.05114 5.39612 8.9813 5.4113 8.97219C5.42649 8.96308 5.45078 8.90538 5.46293 8.84769C5.47507 8.78999 5.50848 8.68674 5.53884 8.61994C5.56921 8.55313 5.64209 8.39219 5.70282 8.26161C5.79999 8.04905 6.10062 7.51763 6.14617 7.48119C6.15528 7.47208 6.1978 7.41742 6.23727 7.35972C6.27675 7.30203 6.32837 7.24129 6.34963 7.22915C6.37089 7.217 6.38911 7.18967 6.38911 7.16842C6.38911 7.14716 6.55916 6.968 6.76565 6.76758C7.14827 6.39407 7.16649 6.37888 7.30314 6.29082C7.34565 6.26349 7.40031 6.22098 7.4246 6.19972C7.53392 6.09344 8.33256 5.6592 8.42063 5.6592C8.43885 5.6592 8.45403 5.64705 8.45403 5.63187C8.45403 5.61668 8.49958 5.59239 8.55424 5.58328C8.60586 5.57113 8.6666 5.54988 8.68178 5.53773C8.7 5.52558 8.76073 5.50433 8.81843 5.49218C8.87613 5.48004 8.9399 5.45878 8.95508 5.44663C8.9733 5.43449 9.10084 5.39501 9.24356 5.36161C10.1819 5.13386 10.7558 5.12778 11.6881 5.34642C11.8733 5.38894 12.0373 5.43449 12.0525 5.44663C12.0707 5.46182 12.1345 5.48004 12.1982 5.49218C12.259 5.50433 12.3106 5.52558 12.3106 5.54077C12.3106 5.55595 12.3349 5.5681 12.3652 5.5681C12.3926 5.5681 12.4685 5.59543 12.5323 5.62883C12.593 5.66223 12.6628 5.68956 12.6871 5.68956C12.7084 5.68956 12.7448 5.71082 12.7661 5.73511C12.7964 5.77155 12.7934 5.78066 12.7448 5.78066C12.7145 5.78066 12.675 5.76852 12.6598 5.75333C12.6142 5.71082 12.0859 5.6592 11.6911 5.6592C11.3146 5.6592 10.7254 5.71386 10.7012 5.7503C10.692 5.76244 10.5979 5.78066 10.4916 5.78977C10.3853 5.79888 10.2882 5.82014 10.2791 5.83532C10.27 5.85051 10.2031 5.8748 10.1303 5.88695C10.0574 5.89909 9.96021 5.92642 9.9177 5.95072C9.87215 5.97501 9.80838 5.99323 9.77498 5.99323C9.73854 5.99323 9.69906 6.00538 9.68388 6.02056C9.66566 6.03574 9.57456 6.07522 9.48042 6.11166C9.38325 6.14506 9.17979 6.2392 9.02796 6.31815C8.62712 6.52768 8.60586 6.53983 8.60586 6.57323C8.60586 6.58841 8.58461 6.60056 8.56031 6.60056C8.53602 6.60056 8.49047 6.62789 8.46314 6.66129C8.43277 6.6947 8.39937 6.72203 8.38722 6.72203C8.37204 6.72203 8.26272 6.80402 8.14126 6.90119C7.79508 7.18056 7.33958 7.65428 7.15131 7.92758C7.10879 7.99135 7.06324 8.04905 7.0511 8.05208C7.03591 8.05816 7.0268 8.07638 7.0268 8.09459C7.0268 8.12496 6.84764 8.39219 6.80816 8.42255C6.79905 8.43166 6.7778 8.47721 6.76869 8.52276C6.75654 8.56831 6.73528 8.60475 6.72314 8.60475C6.70795 8.60475 6.6867 8.63512 6.67455 8.6746C6.66544 8.71104 6.63811 8.76266 6.61989 8.78695C6.5713 8.84769 6.34963 9.4125 6.27068 9.68277C5.96094 10.7274 5.96094 11.857 6.27068 12.9016C6.34963 13.1719 6.5713 13.7367 6.61989 13.7974C6.63811 13.8217 6.66544 13.8733 6.67455 13.9128C6.6867 13.9493 6.70795 13.9796 6.72314 13.9796C6.73528 13.9796 6.75654 14.0161 6.76869 14.0616C6.7778 14.1072 6.79905 14.1527 6.80816 14.1618C6.84157 14.1861 6.99644 14.4199 6.99644 14.4442C6.99644 14.4989 6.92963 14.4442 6.68366 14.1861Z" fill="white"/>
<path d="M15.593 7.23507C15.5535 7.18344 15.4381 7.07413 15.3349 6.9891C15.2316 6.90711 15.1223 6.81297 15.0889 6.78564C15.0525 6.75528 15.0008 6.72491 14.9735 6.71276C14.9462 6.70365 14.9219 6.67632 14.9219 6.65507C14.9219 6.63381 15.6659 5.87161 16.5769 4.96061C18.165 3.37244 18.2318 3.3026 18.2318 3.19328C18.2318 3.04448 18.2683 3.0293 18.3776 3.13862C18.4292 3.18721 18.4748 3.22972 18.4808 3.22972C18.5203 3.22972 19.1428 3.82187 19.1428 3.85831C19.1428 3.90082 17.1356 5.88376 16.9291 6.04166C16.6619 6.24816 16.3005 6.60344 16.1031 6.85852C15.9543 7.05287 15.6993 7.33224 15.675 7.32617C15.6689 7.32617 15.6325 7.28365 15.593 7.23507Z" fill="white"/>
</svg>
